<svg id="ew1x1ovqfm4s1" xmlns="http://www.w3.org/2000/svg" xmlns:xlink="http://www.w3.org/1999/xlink" viewBox="0 0 865.692913 869.146982" shape-rendering="geometricPrecision" text-rendering="geometricPrecision"><style><![CDATA[#ew1x1ovqfm4s4_ts {animation: ew1x1ovqfm4s4_ts__ts 3000ms linear infinite normal forwards}@keyframes ew1x1ovqfm4s4_ts__ts { 0% {transform: translate(432.845795px,434.573490px) scale(1,1)} 33.333333% {transform: translate(432.845795px,434.573490px) scale(1,1);animation-timing-function: cubic-bezier(0.315000,-0.130000,0,1)} 50% {transform: translate(432.845795px,434.573490px) scale(0.500000,0.500000);animation-timing-function: cubic-bezier(0.315000,-0.130000,0,1)} 66.666667% {transform: translate(432.845795px,434.573490px) scale(1,1)} 100% {transform: translate(432.845795px,434.573490px) scale(1,1)} }#ew1x1ovqfm4s8_ts {animation: ew1x1ovqfm4s8_ts__ts 3000ms linear infinite normal forwards}@keyframes ew1x1ovqfm4s8_ts__ts { 0% {transform: translate(289.691601px,290.573490px) scale(1,1)} 16.666667% {transform: translate(289.691601px,290.573490px) scale(1,1);animation-timing-function: cubic-bezier(0.315000,-0.130000,0,1)} 33.333333% {transform: translate(289.691601px,290.573490px) scale(0.500000,0.500000);animation-timing-function: cubic-bezier(0.315000,-0.130000,0,1)} 50% {transform: translate(289.691601px,290.573490px) scale(1,1)} 100% {transform: translate(289.691601px,290.573490px) scale(1,1)} }#ew1x1ovqfm4s11_ts {animation: ew1x1ovqfm4s11_ts__ts 3000ms linear infinite normal forwards}@keyframes ew1x1ovqfm4s11_ts__ts { 0% {transform: translate(577.691589px,578.573486px) scale(1,1)} 50% {transform: translate(577.691589px,578.573486px) scale(1,1);animation-timing-function: cubic-bezier(0.315000,-0.130000,0,1)} 66.666667% {transform: translate(577.691589px,578.573486px) scale(0.500000,0.500000);animation-timing-function: cubic-bezier(0.315000,-0.130000,0,1)} 83.333333% {transform: translate(577.691589px,578.573486px) scale(1,1)} 100% {transform: translate(577.691589px,578.573486px) scale(1,1)} }#ew1x1ovqfm4s14_ts {animation: ew1x1ovqfm4s14_ts__ts 3000ms linear infinite normal forwards}@keyframes ew1x1ovqfm4s14_ts__ts { 0% {transform: translate(145.691601px,146.573486px) scale(1,1);animation-timing-function: cubic-bezier(0.315000,-0.130000,0,1)} 16.666667% {transform: translate(145.691601px,146.573486px) scale(0.500000,0.500000);animation-timing-function: cubic-bezier(0.315000,-0.130000,0,1)} 33.333333% {transform: translate(145.691601px,146.573486px) scale(1,1)} 100% {transform: translate(145.691601px,146.573486px) scale(1,1)} }#ew1x1ovqfm4s15_ts {animation: ew1x1ovqfm4s15_ts__ts 3000ms linear infinite normal forwards}@keyframes ew1x1ovqfm4s15_ts__ts { 0% {transform: translate(721.691589px,722.573486px) scale(1,1)} 66.666667% {transform: translate(721.691589px,722.573486px) scale(1,1);animation-timing-function: cubic-bezier(0.315000,-0.130000,0,1)} 83.333333% {transform: translate(721.691589px,722.573486px) scale(0.500000,0.500000);animation-timing-function: cubic-bezier(0.315000,-0.130000,0,1)} 100% {transform: translate(721.691589px,722.573486px) scale(1,1)} }]]></style><g id="ew1x1ovqfm4s2" clip-path="url(#ew1x1ovqfm4s16)"><g id="ew1x1ovqfm4s3"><g id="ew1x1ovqfm4s4_ts" transform="translate(432.845795,434.573490) scale(1,1)"><g id="ew1x1ovqfm4s4" transform="translate(-432.845795,-434.573490)"><path id="ew1x1ovqfm4s5" d="M289.691600,434.573500L289.691600,434.573500C289.691600,355.044510,354.162610,290.573500,433.691600,290.573500L433.691600,290.573500C471.882793,290.573500,508.509746,305.744887,535.514964,332.750136C562.520213,359.755355,577.691600,396.382338,577.691600,434.573500L577.691600,434.573500C577.691600,514.102490,513.220590,578.573500,433.691600,578.573500L433.691600,578.573500C354.162610,578.573500,289.691600,514.102490,289.691600,434.573500Z" transform="matrix(1 0 0 1 -1.69160099999999 -0.00001600000002)" fill="rgb(0,80,221)" fill-rule="evenodd" stroke="none" stroke-width="1" stroke-linecap="square" stroke-miterlimit="10"/><path id="ew1x1ovqfm4s6" d="M577.691600,146.573490L577.691600,146.573490C577.691600,67.044490,642.162610,2.573490,721.691600,2.573490L721.691600,2.573490C759.882762,2.573490,796.509780,17.744874,823.514964,44.750114C850.520213,71.755355,865.691600,108.382316,865.691600,146.573484L865.691600,146.573484C865.691600,226.102494,801.220590,290.573484,721.691600,290.573484L721.691600,290.573484C642.162610,290.573484,577.691600,226.102494,577.691600,146.573484Z" fill="rgb(0,80,221)" fill-rule="evenodd" stroke="none" stroke-width="1" stroke-linecap="square" stroke-miterlimit="10"/><path id="ew1x1ovqfm4s7" d="M1.691601,722.573500L1.691601,722.573500C1.691601,643.044510,66.162591,578.573500,145.691601,578.573500L145.691601,578.573500C183.882778,578.573500,220.509731,593.744887,247.514981,620.750136C274.520200,647.755385,289.691586,684.382338,289.691586,722.573500L289.691586,722.573500C289.691586,802.102490,225.220606,866.573500,145.691606,866.573500L145.691606,866.573500C66.162596,866.573500,1.691606,802.102490,1.691606,722.573500Z" transform="matrix(1 0 0 1 -1.69160099999999 -0.00001599999996)" fill="rgb(0,80,221)" fill-rule="evenodd" stroke="none" stroke-width="1" stroke-linecap="square" stroke-miterlimit="10"/></g></g><g id="ew1x1ovqfm4s8_ts" transform="translate(289.691601,290.573490) scale(1,1)"><g id="ew1x1ovqfm4s8" transform="translate(-289.691601,-290.573490)"><path id="ew1x1ovqfm4s9" d="M289.691600,146.573490L289.691600,146.573490C289.691600,67.044490,354.162610,2.573490,433.691600,2.573490L433.691600,2.573490C471.882793,2.573490,508.509746,17.744874,535.514964,44.750114C562.520213,71.755355,577.691600,108.382316,577.691600,146.573484L577.691600,146.573484C577.691600,226.102494,513.220590,290.573484,433.691600,290.573484L433.691600,290.573484C354.162610,290.573484,289.691600,226.102494,289.691600,146.573484Z" fill="rgb(29,110,252)" fill-rule="evenodd" stroke="none" stroke-width="1" stroke-linecap="square" stroke-miterlimit="10"/><path id="ew1x1ovqfm4s10" d="M1.691601,434.573500L1.691601,434.573500C1.691601,355.044510,66.162591,290.573500,145.691601,290.573500L145.691601,290.573500C183.882778,290.573500,220.509731,305.744887,247.514981,332.750136C274.520200,359.755355,289.691586,396.382338,289.691586,434.573500L289.691586,434.573500C289.691586,514.102490,225.220606,578.573500,145.691606,578.573500L145.691606,578.573500C66.162596,578.573500,1.691606,514.102490,1.691606,434.573500Z" fill="rgb(29,110,252)" fill-rule="evenodd" stroke="none" stroke-width="1" stroke-linecap="square" stroke-miterlimit="10"/></g></g><g id="ew1x1ovqfm4s11_ts" transform="translate(577.691589,578.573486) scale(1,1)"><g id="ew1x1ovqfm4s11" transform="translate(-577.691589,-578.573486)"><path id="ew1x1ovqfm4s12" d="M577.691600,434.573500L577.691600,434.573500C577.691600,355.044510,642.162610,290.573500,721.691600,290.573500L721.691600,290.573500C759.882762,290.573500,796.509780,305.744887,823.514964,332.750136C850.520213,359.755355,865.691600,396.382338,865.691600,434.573500L865.691600,434.573500C865.691600,514.102490,801.220590,578.573500,721.691600,578.573500L721.691600,578.573500C642.162610,578.573500,577.691600,514.102490,577.691600,434.573500Z" fill="rgb(0,63,170)" fill-rule="evenodd" stroke="none" stroke-width="1" stroke-linecap="square" stroke-miterlimit="10"/><path id="ew1x1ovqfm4s13" d="M289.691600,722.573500L289.691600,722.573500C289.691600,643.044510,354.162610,578.573500,433.691600,578.573500L433.691600,578.573500C471.882793,578.573500,508.509746,593.744887,535.514964,620.750136C562.520213,647.755385,577.691600,684.382338,577.691600,722.573500L577.691600,722.573500C577.691600,802.102490,513.220590,866.573500,433.691600,866.573500L433.691600,866.573500C354.162610,866.573500,289.691600,802.102490,289.691600,722.573500Z" fill="rgb(0,63,170)" fill-rule="evenodd" stroke="none" stroke-width="1" stroke-linecap="square" stroke-miterlimit="10"/></g></g><g id="ew1x1ovqfm4s14_ts" transform="translate(145.691601,146.573486) scale(1,1)"><path id="ew1x1ovqfm4s14" d="M1.691601,146.573490L1.691601,146.573490C1.691601,67.044490,66.162591,2.573490,145.691601,2.573490L145.691601,2.573490C183.882778,2.573490,220.509731,17.744874,247.514981,44.750114C274.520200,71.755355,289.691586,108.382316,289.691586,146.573484L289.691586,146.573484C289.691586,226.102494,225.220606,290.573484,145.691606,290.573484L145.691606,290.573484C66.162596,290.573484,1.691606,226.102494,1.691606,146.573484Z" transform="translate(-145.691601,-146.573486)" fill="rgb(68,136,255)" fill-rule="evenodd" stroke="none" stroke-width="1" stroke-linecap="square" stroke-miterlimit="10"/></g><g id="ew1x1ovqfm4s15_ts" transform="translate(721.691589,722.573486) scale(1,1)"><path id="ew1x1ovqfm4s15" d="M577.691600,722.573500L577.691600,722.573500C577.691600,643.044510,642.162610,578.573500,721.691600,578.573500L721.691600,578.573500C759.882762,578.573500,796.509780,593.744887,823.514964,620.750136C850.520213,647.755385,865.691600,684.382338,865.691600,722.573500L865.691600,722.573500C865.691600,802.102490,801.220590,866.573500,721.691600,866.573500L721.691600,866.573500C642.162610,866.573500,577.691600,802.102490,577.691600,722.573500Z" transform="translate(-721.691589,-722.573486)" fill="rgb(1,47,120)" fill-rule="evenodd" stroke="none" stroke-width="1" stroke-linecap="square" stroke-miterlimit="10"/></g></g><clipPath id="ew1x1ovqfm4s16"><path id="ew1x1ovqfm4s17" d="M0,0L865.692930,0L865.692930,869.147000L0,869.147000L0,0Z" fill="none" stroke="none" stroke-width="1" stroke-linecap="square" stroke-miterlimit="10"/></clipPath></g></svg>