<?xml version="1.0" standalone="no"?>
<!DOCTYPE svg PUBLIC "-//W3C//DTD SVG 20010904//EN"
 "http://www.w3.org/TR/2001/REC-SVG-20010904/DTD/svg10.dtd">
<svg version="1.0" xmlns="http://www.w3.org/2000/svg"
 width="868.000000pt" height="868.000000pt" viewBox="0 0 868.000000 868.000000"
 preserveAspectRatio="xMidYMid meet">
<metadata>
Created by potrace 1.11, written by Peter Selinger 2001-2013
</metadata>
<g transform="translate(0.000000,868.000000) scale(0.100000,-0.100000)"
fill="#000000" stroke="none">
<path d="M1365 8648 c-270 -22 -504 -107 -728 -265 -85 -60 -227 -194 -289
-273 -145 -185 -247 -415 -293 -660 -6 -33 -18 -185 -18 -230 0 -60 14 -213
23 -255 5 -22 11 -55 15 -72 10 -61 57 -198 95 -278 112 -240 274 -431 499
-590 137 -96 373 -194 526 -219 17 -2 44 -7 60 -10 17 -3 47 -7 68 -10 50 -5
60 -16 16 -17 -65 -1 -133 -14 -245 -44 -507 -138 -896 -543 -1019 -1062 -23
-99 -23 -100 -31 -198 -9 -113 -9 -138 0 -250 22 -272 134 -555 305 -770 234
-293 603 -497 964 -531 77 -8 80 -14 10 -20 -216 -20 -462 -111 -663 -247
-255 -173 -460 -447 -553 -742 -43 -138 -72 -318 -70 -445 0 -50 14 -224 18
-230 2 -3 6 -25 10 -50 10 -68 78 -267 120 -350 98 -196 221 -348 390 -485
183 -147 387 -243 615 -289 121 -24 159 -28 280 -28 107 0 154 3 246 18 290
46 590 205 794 422 90 95 95 101 159 194 58 86 127 222 164 324 33 92 72 276
77 364 1 19 8 -9 16 -64 70 -515 384 -932 861 -1143 70 -31 214 -77 278 -88
17 -2 39 -7 50 -9 95 -18 273 -24 394 -11 258 26 540 142 746 308 78 62 206
198 269 286 136 189 236 450 260 680 7 66 16 78 17 25 5 -142 56 -330 136
-494 46 -95 92 -172 106 -178 4 -2 7 -8 7 -14 0 -6 24 -41 53 -77 381 -471
993 -657 1567 -475 467 147 829 531 953 1010 14 54 28 117 32 139 11 73 14
329 4 390 -5 33 -11 74 -13 90 -9 58 -45 184 -72 252 -180 455 -534 763 -1021
887 -58 15 -151 29 -200 30 -37 1 -26 16 11 16 59 0 203 29 304 61 532 171
913 625 990 1184 14 100 7 356 -12 450 -39 188 -114 374 -214 525 -179 272
-465 488 -766 580 -122 37 -296 69 -336 61 -8 -2 -12 0 -8 4 4 4 26 9 50 11
427 39 825 280 1063 644 97 149 177 346 211 525 19 94 25 366 11 455 -50 319
-187 597 -402 813 -279 281 -638 431 -1030 429 -138 -1 -167 -4 -302 -33 -434
-93 -802 -388 -995 -796 -68 -145 -128 -366 -128 -477 0 -29 -3 -37 -9 -26 -6
8 -8 17 -6 20 7 11 -23 176 -46 258 -125 448 -459 811 -889 967 -93 33 -86 31
-195 55 -127 27 -174 32 -310 32 -399 -2 -767 -163 -1042 -456 -215 -229 -352
-531 -379 -831 -7 -80 -14 -97 -15 -39 -3 151 -65 368 -156 546 -261 514 -815
824 -1388 776z m1559 -1583 c61 -664 609 -1209 1284 -1279 67 -7 60 -13 -25
-20 -152 -14 -384 -86 -505 -157 -27 -16 -51 -29 -53 -29 -7 0 -97 -61 -155
-106 -62 -47 -177 -159 -230 -223 -175 -213 -292 -495 -316 -761 -7 -82 -14
-103 -15 -49 0 19 -2 43 -3 54 -2 11 -6 45 -10 75 -4 30 -19 96 -33 145 -62
224 -163 411 -313 579 -154 172 -326 293 -540 380 -70 29 -219 71 -285 82 -22
3 -47 8 -55 9 -8 2 -35 4 -59 4 -50 1 -48 14 2 17 219 13 499 118 701 262 88
63 228 197 295 282 45 57 111 156 111 166 0 3 8 18 18 32 40 59 109 235 133
342 6 25 13 54 15 65 3 11 10 61 17 112 6 51 12 91 13 90 1 -1 4 -33 8 -72z
m2884 -52 c44 -306 177 -576 392 -794 152 -154 285 -246 476 -328 96 -42 266
-88 354 -98 30 -3 63 -9 75 -13 17 -7 14 -9 -15 -11 -88 -4 -224 -34 -329 -71
-91 -32 -234 -98 -239 -110 -2 -5 -8 -8 -14 -8 -5 0 -49 -27 -96 -60 -226
-155 -427 -408 -518 -653 -9 -23 -20 -51 -25 -62 -20 -45 -58 -215 -64 -290
-4 -44 -8 -81 -10 -83 -1 -1 -7 37 -14 85 -35 236 -104 427 -219 600 -20 31
-48 72 -61 92 -38 59 -240 252 -321 307 -90 62 -182 112 -270 149 -65 28 -203
72 -250 80 -14 2 -49 9 -79 15 -29 5 -72 10 -94 10 -52 0 -42 10 15 16 39 4
58 7 138 20 104 18 298 90 409 152 169 93 360 260 451 392 13 19 27 37 31 40
23 17 126 212 169 320 16 41 58 183 65 220 7 36 19 137 18 153 0 9 3 17 6 17
4 0 13 -39 19 -87z m1355 -1240 c-7 -2 -19 -2 -25 0 -7 3 -2 5 12 5 14 0 19
-2 13 -5z m-4239 -1588 c4 -33 12 -85 18 -115 6 -30 11 -59 12 -65 5 -22 37
-131 45 -150 5 -11 17 -40 26 -65 28 -77 138 -270 180 -316 5 -7 25 -31 44
-54 192 -236 499 -421 802 -485 74 -16 120 -23 152 -24 27 -1 20 -16 -9 -19
-165 -13 -382 -83 -549 -177 -171 -96 -361 -270 -474 -433 -103 -152 -197
-370 -227 -527 -4 -22 -8 -44 -9 -50 -1 -5 -6 -41 -10 -80 l-8 -70 -18 110
c-39 247 -119 446 -257 639 -67 93 -200 232 -290 300 -147 112 -356 214 -517
251 -38 9 -86 20 -106 26 -20 5 -54 9 -75 10 -22 1 -50 4 -64 8 -19 5 -7 9 45
14 219 20 449 104 642 234 315 212 534 540 607 909 22 110 24 124 25 163 1 50
8 35 15 -34z m2887 -65 c17 -112 17 -112 54 -226 134 -409 446 -740 844 -893
68 -26 107 -39 206 -65 6 -2 33 -7 60 -11 28 -5 53 -10 58 -11 4 -1 26 -2 49
-3 37 -1 47 -12 15 -16 -7 -1 -39 -5 -72 -9 -168 -19 -401 -104 -559 -205
-368 -233 -624 -642 -663 -1059 -7 -71 -12 -74 -18 -11 -25 251 -128 511 -287
722 -159 213 -425 405 -678 490 -69 23 -136 41 -142 37 -2 -1 -15 3 -29 8 -23
9 -90 20 -162 27 -50 5 -39 12 30 19 38 3 79 8 93 11 14 3 37 7 51 10 31 6
150 41 194 57 391 146 716 474 851 859 20 57 66 214 63 214 -1 0 13 115 17
135 1 8 3 22 5 30 1 8 3 4 5 -10 2 -14 9 -59 15 -100z m-1561 -1220 c0 -5 -4
-10 -10 -10 -5 0 -10 5 -10 10 0 6 5 10 10 10 6 0 10 -4 10 -10z"/>
</g>
</svg>
